# xmcd
#
# Track frame offsets:
#	150
#	15933
#	30800
#	47805
#	67400
#	83282
#	95788
#	110772
#	128214
#	144373
#	168232
#	186751
#
# Disc length: 2680 seconds
#
# Revision: 1
# Processed by: cddbd v1.5.1PL2 Copyright (c) Steve Scherf et al.
# Submitted via: EasyCDDAExtractor 6.5.9.5
#
DISCID=960a760c
DTITLE=The Wreckers - Stand Still, Look Pretty
DYEAR=2006
DGENRE=Country
TTITLE0=Leave The Pieces
TTITLE1=Way Back Home
TTITLE2=The Good Kind
TTITLE3=Tennessee
TTITLE4=My, Oh My
TTITLE5=Stand Still, Look Pretty
TTITLE6=Cigarettes
TTITLE7=Hard To Love You
TTITLE8=Lay Me Down
TTITLE9=One More Girl
TTITLE10=Rain
TTITLE11=Only Crazy People
EXTD=
EXTT0=
EXTT1=
EXTT2=
EXTT3=
EXTT4=
EXTT5=
EXTT6=
EXTT7=
EXTT8=
EXTT9=
EXTT10=
EXTT11=
PLAYORDER=
